<svg width="455" height="471" viewBox="0 0 455 471" fill="none" xmlns="http://www.w3.org/2000/svg">
<path d="M376.8 70V425.7H90.2V405.3C90.2 374.2 121.3 349 159.6 349C200.4 349 233.6 322.1 233.6 288.9V149.2C233.6 101.9 280.8 63.6 339 63.6H368.9C373.3 63.5 376.8 66.4 376.8 70ZM445.6 87.4C445.6 83.9 439.6 76 429.4 75.9C422.4 75.8 413.2 82 413.2 89V145.2V195.7V360.3C413.2 375.5 418.8 388.5 429.4 402.7C440.1 388.5 445.6 373.9 445.6 358.7V87.4Z" fill="#6428C7"/>
<path d="M384.5 60.7V98.7C384.5 103.1 380.9 106.7 376.5 106.7C372.1 106.7 368.5 103.1 368.5 98.7V68.7H98.2V111.7V418.5H368.6V123.2C368.6 118.8 372.2 115.2 376.6 115.2C381 115.2 384.6 118.8 384.6 123.2V426.5C384.6 430.9 381 434.5 376.6 434.5H90.2C85.8 434.5 82.2 430.9 82.2 426.5V111.7V60.7C82.2 56.3 85.8 52.7 90.2 52.7H376.6C381 52.7 384.5 56.3 384.5 60.7ZM325.2 130.7H225.6C221.2 130.7 217.6 134.3 217.6 138.7C217.6 143.1 221.2 146.7 225.6 146.7H325.2C329.6 146.7 333.2 143.1 333.2 138.7C333.2 134.3 329.6 130.7 325.2 130.7ZM325.2 191.3H225.6C221.2 191.3 217.6 194.9 217.6 199.3C217.6 203.7 221.2 207.3 225.6 207.3H325.2C329.6 207.3 333.2 203.7 333.2 199.3C333.2 194.9 329.6 191.3 325.2 191.3ZM325.2 251.9H225.6C221.2 251.9 217.6 255.5 217.6 259.9C217.6 264.3 221.2 267.9 225.6 267.9H325.2C329.6 267.9 333.2 264.3 333.2 259.9C333.2 255.5 329.6 251.9 325.2 251.9ZM325.2 321.9H225.6C221.2 321.9 217.6 325.5 217.6 329.9C217.6 334.3 221.2 337.9 225.6 337.9H325.2C329.6 337.9 333.2 334.3 333.2 329.9C333.2 325.5 329.6 321.9 325.2 321.9ZM189.2 141.8H152.5V125.8C152.5 121.4 148.9 117.8 144.5 117.8C140.1 117.8 136.5 121.4 136.5 125.8V149.8C136.5 154.2 140.1 157.8 144.5 157.8H189.2C193.6 157.8 197.2 154.2 197.2 149.8C197.2 145.4 193.7 141.8 189.2 141.8ZM189.2 203.3H152.5V187.3C152.5 182.9 148.9 179.3 144.5 179.3C140.1 179.3 136.5 182.9 136.5 187.3V211.3C136.5 215.7 140.1 219.3 144.5 219.3H189.2C193.6 219.3 197.2 215.7 197.2 211.3C197.2 206.9 193.7 203.3 189.2 203.3ZM189.2 263.9H152.5V247.9C152.5 243.5 148.9 239.9 144.5 239.9C140.1 239.9 136.5 243.5 136.5 247.9V271.9C136.5 276.3 140.1 279.9 144.5 279.9H189.2C193.6 279.9 197.2 276.3 197.2 271.9C197.2 267.5 193.7 263.9 189.2 263.9ZM144.6 309.9C140.2 309.9 136.6 313.5 136.6 317.9V341.9C136.6 346.3 140.2 349.9 144.6 349.9H189.3C193.7 349.9 197.3 346.3 197.3 341.9C197.3 337.5 193.7 333.9 189.3 333.9H152.6V317.9C152.6 313.5 149 309.9 144.6 309.9ZM454.5 87.4C454.5 78.1 443.6 67.2 429.5 67C423 66.9 415.7 70 410.6 75C406.5 79 404.3 84 404.3 89V145.2C404.3 150.1 408.3 154.1 413.2 154.1C418.1 154.1 422.1 150.1 422.1 145.2V89.1C422.5 87.6 426.5 84.8 429.3 84.8C429.3 84.8 429.3 84.8 429.4 84.8C433.7 84.9 436.2 87.4 436.9 88.5V358.7C436.9 368.1 434.4 377.3 429.4 386.5C424.4 377.5 422.1 369.2 422.1 360.2V195.6C422.1 190.7 418.1 186.7 413.2 186.7C408.3 186.7 404.3 190.7 404.3 195.6V360.2C404.3 376.6 409.9 391.4 422.3 407.9C424 410.1 426.6 411.4 429.4 411.4C432.2 411.4 434.8 410.1 436.5 407.9C448.4 392 454.5 375.4 454.5 358.6V87.4Z" fill="black"/>
<path d="M413.2 107.7H355.1C350.7 107.7 347.1 104.1 347.1 99.7C347.1 95.3 350.7 91.7 355.1 91.7H413.2C417.6 91.7 421.2 95.3 421.2 99.7C421.2 104.1 417.6 107.7 413.2 107.7ZM428.5 194.1C428.5 189.7 424.9 186.1 420.5 186.1H397.6C393.2 186.1 389.6 189.7 389.6 194.1C389.6 198.5 393.2 202.1 397.6 202.1H420.5C424.9 202.1 428.5 198.5 428.5 194.1ZM434.9 448.6C429 448.6 424.1 453.4 424.1 459.4C424.1 465.4 428.9 470.2 434.9 470.2C440.8 470.2 445.7 465.4 445.7 459.4C445.7 453.4 440.8 448.6 434.9 448.6ZM55.5 23.8H39.8V8C39.8 3.6 36.2 0 31.8 0C27.4 0 23.8 3.6 23.8 8V23.8H8C3.6 23.8 0 27.4 0 31.8C0 36.2 3.6 39.8 8 39.8H23.8V55.6C23.8 60 27.4 63.6 31.8 63.6C36.2 63.6 39.8 60 39.8 55.6V39.8H55.6C60 39.8 63.6 36.2 63.6 31.8C63.6 27.4 59.9 23.8 55.5 23.8ZM418.2 20.8C418.2 16.4 414.6 12.8 410.2 12.8H336.4C332 12.8 328.4 16.4 328.4 20.8C328.4 25.2 332 28.8 336.4 28.8H410.2C414.6 28.8 418.2 25.2 418.2 20.8Z" fill="black"/>
</svg>
