<svg width="512" height="512" viewBox="0 0 512 512" fill="none" xmlns="http://www.w3.org/2000/svg">
<path d="M99.5 435.9V482.2H77V435.9H99.5Z" fill="#6428C7"/>
<path d="M54.1 435.9V482.2H32.6V435.9H54.1Z" fill="#6428C7"/>
<path d="M287.4 170.3C287.4 174.7 283.8 178.3 279.4 178.3H171.4C167 178.3 163.4 174.7 163.4 170.3C163.4 165.9 167 162.3 171.4 162.3H279.4C283.8 162.3 287.4 165.9 287.4 170.3ZM155.8 217.2H69C64.6 217.2 61 220.8 61 225.2C61 229.6 64.6 233.2 69 233.2H155.8C160.2 233.2 163.8 229.6 163.8 225.2C163.8 220.8 160.2 217.2 155.8 217.2ZM101.6 78.1H130.3C134.7 78.1 138.3 74.5 138.3 70.1C138.3 65.7 134.7 62.1 130.3 62.1H101.6C97.2 62.1 93.6 65.7 93.6 70.1C93.6 74.5 97.2 78.1 101.6 78.1ZM44.5 50.3H40.6V46.4C40.6 42 37 38.4 32.6 38.4C28.2 38.4 24.6 42 24.6 46.4V50.3H20.7C16.3 50.3 12.7 53.9 12.7 58.3C12.7 62.7 16.3 66.3 20.7 66.3H24.6V70.2C24.6 74.6 28.2 78.2 32.6 78.2C37 78.2 40.6 74.6 40.6 70.2V66.3H44.5C48.9 66.3 52.5 62.7 52.5 58.3C52.5 53.9 48.9 50.3 44.5 50.3ZM113.7 129.5C113.7 133.9 117.3 137.5 121.7 137.5H193.1C197.5 137.5 201.1 133.9 201.1 129.5C201.1 125.1 197.5 121.5 193.1 121.5H121.7C117.3 121.5 113.7 125.1 113.7 129.5Z" fill="black"/>
<path d="M453.7 155.6C453.7 192.8 423.5 223 386.3 223C350.4 223 321 194.9 319 159.4C322.2 158.3 327 158.5 328.6 162.3C337.6 184 353.5 200 375.9 203.5C395 206.5 414.6 193.1 420.8 186C438.6 165.6 436.9 124.2 387.1 105.3C379.5 102.4 384.2 90 392.3 89.9H392.6C397.6 89.9 402.4 90.4 407.2 91.3C434.1 100.2 453.7 125.6 453.7 155.6Z" fill="#6428C7"/>
<path d="M482.2 28.1V423.6C482.2 435.8 477.3 446.7 469.3 454.7C461.5 462.6 450.6 467.5 438.6 467.6C414.2 467.8 394.3 447.3 394.3 423H165.2C138 423 115.9 400.9 115.9 373.7V365H394.2V295.5L442.8 324.7C443.7 325.3 444.9 325.6 446 325.6C447.3 325.6 448.5 325.2 449.7 324.5C451.7 323 452.7 320.5 452.2 318.1L430.1 207.6C430.1 207.6 465.4 180 449.7 136.2C441.5 107.1 414.7 85.7 382.9 85.7C369.2 85.7 356.5 89.7 345.8 96.5H244.2C217.8 96.5 196.5 75.1 196.5 48.8V28.1H482.2Z" fill="#6428C7"/>
<path d="M490.2 28.1V423.6C490.2 437.5 484.8 450.6 474.9 460.3C465.2 470.1 452.2 475.5 438.2 475.5H159.9C131.3 475.5 108 452.2 108 423.6V365C108 360.6 111.6 357 116 357H166.6C171 357 174.6 360.6 174.6 365C174.6 369.4 171 373 166.6 373H124V423.6C124 443.4 140.1 459.5 159.9 459.5H400.8C400.6 459.3 400.5 459.1 400.3 459C400 458.7 399.8 458.4 399.5 458.1C399.2 457.8 398.9 457.5 398.7 457.1C398.4 456.8 398.2 456.5 397.9 456.2C397.6 455.9 397.4 455.5 397.1 455.2C396.9 454.9 396.6 454.6 396.4 454.3C396.1 454 395.9 453.6 395.7 453.3C395.5 453 395.2 452.6 395 452.3C394.8 451.9 394.5 451.6 394.3 451.2C394.1 450.9 393.9 450.5 393.7 450.2C393.5 449.8 393.3 449.5 393.1 449.1C392.9 448.8 392.7 448.4 392.5 448.1C392.3 447.7 392.1 447.3 391.9 446.9C391.7 446.5 391.5 446.2 391.4 445.8C391.2 445.4 391 445 390.9 444.6C390.7 444.2 390.6 443.9 390.4 443.5C390.2 443.1 390.1 442.7 389.9 442.3C389.8 441.9 389.6 441.6 389.5 441.2C389.3 440.8 389.2 440.4 389.1 439.9C389 439.5 388.8 439.2 388.7 438.8C388.6 438.4 388.4 437.9 388.3 437.5C388.2 437.1 388.1 436.8 388 436.4C387.9 436 387.8 435.5 387.7 435C387.6 434.6 387.5 434.3 387.4 433.9C387.3 433.4 387.2 432.9 387.1 432.5C387 432.1 387 431.8 386.9 431.4C386.8 430.9 386.8 430.4 386.7 429.9C386.7 429.6 386.6 429.2 386.6 428.9C386.5 428.3 386.5 427.8 386.5 427.2C386.5 426.9 386.4 426.6 386.4 426.3C386.4 425.4 386.3 424.5 386.3 423.7V373H196.5C192.1 373 188.5 369.4 188.5 365V170.9C188.5 166.5 192.1 162.9 196.5 162.9C200.9 162.9 204.5 166.5 204.5 170.9V357H394.3C398.7 357 402.3 360.6 402.3 365V423.6C402.3 443.4 418.4 459.5 438.2 459.5C447.8 459.5 456.9 455.8 463.6 449C470.4 442.2 474.2 433.2 474.2 423.6V36.1H204.5V137.4C204.5 141.8 200.9 145.4 196.5 145.4C192.1 145.4 188.5 141.8 188.5 137.4V28.1C188.5 23.7 192.1 20.1 196.5 20.1H482.2C486.6 20.1 490.2 23.7 490.2 28.1ZM311.5 330.9C311.6 331 311.7 331 311.7 331.1C316.4 334.2 322.3 334.4 327.1 331.6L382.9 298.1L438.7 331.6C440.9 332.9 443.4 333.6 446 333.6C448.9 333.6 451.7 332.7 454.1 331.1C454.2 331 454.3 331 454.3 330.9C458.9 327.6 461.1 321.9 460 316.4L439 210.9C452.1 199 460.4 181.9 460.4 162.8C460.4 160.3 460.3 157.9 460 155.5C459.5 151.1 455.5 148 451.1 148.5C446.7 149 443.6 153 444.1 157.4C444.3 159.2 444.4 160.9 444.4 162.8C444.4 177.7 437.6 191.1 427 200.1C425.7 200.6 424.6 201.5 423.8 202.6C415.8 208.3 406.1 211.7 395.5 211.7C389.2 211.7 383 210.5 377.1 208.1C373 206.4 368.3 208.4 366.7 212.5C365.1 216.6 367 221.3 371.1 222.9C378.9 226.1 387.2 227.7 395.6 227.7C406.1 227.7 415.9 225.2 424.7 220.8L443.7 315.9L387.1 281.9C384.6 280.4 381.4 280.4 378.9 281.9L322.3 315.9L343.9 207.8C344.4 205.1 343.5 202.2 341.5 200.3C328.9 188.7 321.6 172.2 321.6 155C321.6 121.1 349.2 93.5 383.1 93.5C410.5 93.5 434.8 111.9 442.2 138.2C443.4 142.5 447.8 144.9 452.1 143.7C456.4 142.5 458.8 138.1 457.6 133.8C448.2 100.6 417.6 77.5 383.1 77.5C340.4 77.5 305.6 112.2 305.6 155C305.6 175.1 313.5 194.5 327.4 208.8L305.9 316.3C304.7 321.9 306.9 327.6 311.5 330.9Z" fill="black"/>
</svg>
