<svg width="512" height="512" viewBox="0 0 512 512" fill="none" xmlns="http://www.w3.org/2000/svg">
<path d="M488.4 393.3H76.8999V175.4H488.4V393.3ZM258.4 199.6C231.7 199.6 210 226.7 210 260.1C210 293.5 231.7 320.6 258.4 320.6C285.1 320.6 306.8 293.5 306.8 260.1C306.9 226.7 285.2 199.6 258.4 199.6Z" fill="#6428C7"/>
<path d="M488.4 405.3H28.4C24 405.3 20.4 401.7 20.4 397.3V131C20.4 126.6 24 123 28.4 123H440C444.4 123 448 126.6 448 131C448 135.4 444.4 139 440 139H36.5V389.3H480.5V131C480.5 126.6 484.1 123 488.5 123C492.9 123 496.5 126.6 496.5 131V397.3C496.4 401.7 492.8 405.3 488.4 405.3ZM440 356.8H258.4C213.9 356.8 177.8 315.2 177.8 264.1C177.8 250.4 180.4 237.2 185.4 224.8C187.1 220.7 191.7 218.7 195.8 220.4C199.9 222.1 201.9 226.7 200.2 230.8C195.9 241.3 193.8 252.5 193.8 264.1C193.8 306.4 222.8 340.8 258.4 340.8H440C444.4 340.8 448 344.4 448 348.8C448 353.2 444.4 356.8 440 356.8ZM197.7 356.8H76.9C72.5 356.8 68.9 353.2 68.9 348.8V179.4C68.9 175 72.5 171.4 76.9 171.4H258.5C303 171.4 339.1 213 339.1 264.1C339.1 277.8 336.5 291 331.5 303.4C329.8 307.5 325.2 309.5 321.1 307.8C317 306.1 315 301.5 316.7 297.4C321 286.9 323.1 275.7 323.1 264.1C323.1 221.8 294.1 187.4 258.5 187.4H84.9V340.9H197.7C202.1 340.9 205.7 344.5 205.7 348.9C205.7 353.3 202.1 356.8 197.7 356.8ZM440 313.7C435.6 313.7 432 310.1 432 305.7V187.4H319.2C314.8 187.4 311.2 183.8 311.2 179.4C311.2 175 314.8 171.4 319.2 171.4H440C444.4 171.4 448 175 448 179.4V305.7C448 310.1 444.4 313.7 440 313.7Z" fill="black"/>
<path d="M22.1 432.7H38.5V449.1H22.1V432.7Z" fill="#6428C7"/>
<path d="M22.1 472.7H38.5V489.1H22.1V472.7Z" fill="#181818"/>
<path d="M499.1 82.4L438.2 21.5H499.1V82.4Z" fill="#181818"/>
<path d="M53.9 49C53.9 53.4 50.3 57 45.9 57H42V60.9C42 65.3 38.4 68.9 34 68.9C29.6 68.9 26 65.3 26 60.9V57H22.1C17.7 57 14.1 53.4 14.1 49C14.1 44.6 17.7 41 22.1 41H26V37.1C26 32.7 29.6 29.1 34 29.1C38.4 29.1 42 32.7 42 37.1V41H45.9C50.3 41 53.9 44.6 53.9 49ZM150.2 449.6H134.4V433.8C134.4 429.4 130.8 425.8 126.4 425.8C122 425.8 118.4 429.4 118.4 433.8V449.6H102.6C98.2 449.6 94.6 453.2 94.6 457.6C94.6 462 98.2 465.6 102.6 465.6H118.4V481.4C118.4 485.8 122 489.4 126.4 489.4C130.8 489.4 134.4 485.8 134.4 481.4V465.6H150.2C154.6 465.6 158.2 462 158.2 457.6C158.2 453.2 154.7 449.6 150.2 449.6ZM219.9 37.2H139.6C134.4 37.2 130.2 41.4 130.2 46.6C130.2 51.8 134.4 56 139.6 56H219.9C225.1 56 229.3 51.8 229.3 46.6C229.3 41.4 225.1 37.2 219.9 37.2ZM456.4 460.9H369.6C365.2 460.9 361.6 464.5 361.6 468.9C361.6 473.3 365.2 476.9 369.6 476.9H456.4C460.8 476.9 464.4 473.3 464.4 468.9C464.4 464.5 460.9 460.9 456.4 460.9ZM425.7 70.8C425.7 66.4 422.1 62.8 417.7 62.8H360.3C355.9 62.8 352.3 66.4 352.3 70.8C352.3 75.2 355.9 78.8 360.3 78.8H417.7C422.1 78.8 425.7 75.2 425.7 70.8ZM460.8 297.7H388.8C384.4 297.7 380.8 301.3 380.8 305.7C380.8 310.1 384.4 313.7 388.8 313.7H460.8C465.2 313.7 468.8 310.1 468.8 305.7C468.8 301.3 465.3 297.7 460.8 297.7Z" fill="black"/>
</svg>
