<svg width="512" height="512" viewBox="0 0 512 512" fill="none" xmlns="http://www.w3.org/2000/svg">
<path d="M220.3 226.6H184.9V262H148.9L121.4 235.5V226.6H156.8C166.5 226.6 174.5 218.6 174.5 208.9V189.4C174.5 180.6 181.6 173.5 190.4 173.5H209.9C229.3 173.5 245.3 157.6 245.3 138.1C245.3 138.1 247.2 107 231.3 89.5C228.8 88.9 226.3 88.4 223.7 88C234.1 86.1 244.7 85.0999 255.6 85.0999C269 85.0999 282.1 86.7 294.7 89.5C310.6 107 308.7 138.1 308.7 138.1C308.7 157.6 292.8 173.5 273.3 173.5H238V208.9C238 218.6 230 226.6 220.3 226.6ZM39.4 241.3C37.4 241.3 35.5 241.6 33.8 242.3C40.2 244.6 44.8 250.7 44.8 257.9C44.8 265.1 40.2 271.2 33.8 273.5C35.6 274.1 37.4 274.5 39.4 274.5C48.5 274.5 56 267 56 257.9C56 248.8 48.5 241.3 39.4 241.3ZM251 56.4C252.8 57 254.6 57.4 256.6 57.4C265.7 57.4 273.2 49.9 273.2 40.7999C273.2 31.6999 265.7 24.2 256.6 24.2C254.6 24.2 252.7 24.5 251 25.2C257.4 27.5 262 33.5999 262 40.7999C262 47.8999 257.4 54.1 251 56.4ZM255.3 458.3C253.3 458.3 251.4 458.6 249.7 459.3C256.1 461.6 260.7 467.7 260.7 474.9C260.7 482.1 256.1 488.2 249.7 490.5C251.5 491.1 253.3 491.5 255.3 491.5C264.4 491.5 271.9 484 271.9 474.9C271.9 465.8 264.5 458.3 255.3 458.3ZM472.1 241.3C470.1 241.3 468.2 241.6 466.5 242.3C472.9 244.6 477.5 250.7 477.5 257.9C477.5 265.1 472.9 271.2 466.5 273.5C468.3 274.1 470.1 274.5 472.1 274.5C481.2 274.5 488.7 267 488.7 257.9C488.7 248.8 481.2 241.3 472.1 241.3ZM360 357.3C355.4 343 342.3 332.7 326.4 332.7H308.7V279.6C308.7 269.9 300.7 261.9 291 261.9H227.5C237.2 261.9 245.2 269.9 245.2 279.6V315.2C245.2 324.8 253 332.7 262.7 332.7H262.9C278.8 332.7 291.9 343 296.5 357.3C296.6 357.2 296.6 357.1 296.7 357.1C298.9 363.8 300.2 374.1 300.9 383.3C301.8 394.3 296.6 405 287.4 410.9C272.4 420.5 255.9 427.9 238.3 432.7V437.9C244 438.4 249.8 438.8 255.6 438.8C297 438.8 335.2 424.5 365.2 400.6C365 392.8 364.1 369.1 360.1 357.1C360.1 357.1 360.1 357.2 360 357.3Z" fill="#6428C7"/>
<path d="M442.4 257.8C442.4 274.2 455.8 287.6 472.2 287.6C488.6 287.6 502 274.2 502 257.8C502 244.1 492.7 232.6 480.2 229.1C480.2 228.9 480.2 228.6 480.1 228.4C480 228 479.8 226.3 479.4 224.5C478.8 220.7 478.6 219.4 478.5 218.9C475.4 202.9 470.7 187.4 464.5 172.8C448.8 136.1 423.7 104.1 391.9 80.3C361 57.2 324.5 42.3 286.4 37.1C285.9 37 285.3 37 284.8 37C282.9 22.4 270.3 11 255.1 11C239.9 11 227.3 22.4 225.5 37.2C225 37.2 224.5 37.2 223.9 37.3C204.5 39.9 185.2 45.3 166.5 53.3C130.6 68.6 99.1 93.1 75.5 123.9C52.6 153.8 37.4 189.3 31.4 226.5C31.3 227.3 31.3 228.1 31.4 228.8C18.1 231.8 8.20001 243.7 8.20001 257.9C8.20001 271.6 17.5 283.1 30 286.6C30 287 30 287.3 30 287.7C31.6 302.1 34.7 316.4 39.1 330.2C41.5 337.9 44.1 344.7 46.8 351.1C66.8 397.9 102.4 437.1 147.1 461.3C170.6 474.1 195.9 482.6 222.4 486.6C222.8 486.7 223.2 486.7 227.6 487.1C227.7 487.1 227.8 487.1 227.8 487.1C232.5 497.5 242.9 504.8 255 504.8C267.1 504.8 277.5 497.6 282.2 487.3C282.3 487.3 282.5 487.3 282.6 487.3C286.8 487 287.1 486.9 287.6 486.9C307.1 484.1 326.3 478.7 344.7 470.9C378.5 456.5 408.5 433.9 431.5 405.6C453.8 378.2 469.6 345.5 477.2 310.9C478.2 306.6 475.4 302.3 471.1 301.4C466.8 300.4 462.5 303.2 461.6 307.5C446.9 373.9 400.9 429.5 338.4 456.2C321.4 463.5 303.6 468.5 285.5 471.1C285.3 471.1 285 471.1 284.6 471.2C283.1 459.8 275 450.3 264.3 446.9C302.7 445.1 340.1 431.1 370.2 407.2C414.8 372 440.4 319.2 440.4 262.3C440.4 230.2 432.1 198.7 416.3 171C401 144.1 379 121.3 352.7 105.1C348.9 102.8 344 103.9 341.7 107.7C339.4 111.5 340.5 116.4 344.3 118.7C394.5 149.7 424.5 203.4 424.5 262.4C424.5 308.9 405.7 352.5 372.5 384.2C371.8 374.2 370.4 362.6 367.8 355C367.6 354.3 367.2 353.6 366.8 353C360.4 336.3 344.5 325.2 326.4 325.2H316.7V280.2C316.7 266 305.2 254.5 291 254.5H192.9V235.1H220.3C234.5 235.1 246 223.6 246 209.4V182H273.4C297.2 182 316.6 162.7 316.8 138.9C317 135.4 318.1 103.8 300.8 84.7C300.8 84.7 300.8 84.7 300.7 84.6C300.6 84.5 300.5 84.4 300.4 84.3C300.3 84.2 300.2 84.1 300.1 84C300 83.9 299.9 83.9 299.9 83.8C299.8 83.7 299.7 83.6 299.5 83.5C299.4 83.5 299.4 83.4 299.3 83.4C299.1 83.3 299 83.2 298.8 83.1C298.8 83.1 298.7 83.1 298.7 83C298.5 82.9 298.3 82.8 298.1 82.7H298C297.8 82.6 297.6 82.5 297.4 82.5C297.3 82.5 297.3 82.5 297.2 82.5C297 82.4 296.8 82.4 296.6 82.3C283 79.2 269.3 77.7 255.8 77.7C177 77.1 106.9 127 81.2 201.3C74.3 220.4 70.8 240.8 70.8 262C70.8 308.2 87.9 352.4 119.1 386.5C150 420.4 192 441.4 237.4 445.9H237.5C240.4 446.2 243.3 446.4 246 446.5C235.3 449.9 227.1 459.3 225.5 470.7C225.1 470.7 224.8 470.6 224.6 470.6C200.1 466.9 176.6 459 154.7 447.1C113.1 424.6 80 388.2 61.5 344.7C59 338.8 56.6 332.4 54.3 325.3C50.3 312.7 47.5 299.6 46 286.5C58.5 283 67.7 271.5 67.7 257.8C67.7 244.6 59 233.3 47 229.4C47 229.2 47.1 229.1 47.1 228.9C58.6 156.7 105.5 96.5 172.7 67.8C190 60.4 208 55.4 226 53C226.6 52.9 227.1 52.8 227.7 52.6C232.3 63.1 242.8 70.5 255 70.5C267.2 70.5 277.8 63.1 282.4 52.5C282.9 52.7 283.5 52.8 284.1 52.9C357.3 62.9 420.7 111.2 449.7 179C455.5 192.5 459.9 206.9 462.7 221.8C462.8 222.3 463.2 224.7 463.6 227C463.7 227.7 463.8 228.5 463.9 229.1C451.5 232.8 442.4 244.3 442.4 257.8ZM255.7 93.1C267.2 93.1 278.8 94.3 290.4 96.8C302.1 111.9 300.8 137.4 300.7 137.7C300.7 137.9 300.7 138 300.7 138.2C300.7 153.3 288.4 165.6 273.3 165.6H238C233.6 165.6 230 169.2 230 173.6V209C230 214.3 225.7 218.7 220.3 218.7H184.9C180.5 218.7 176.9 222.3 176.9 226.7V262.1C176.9 266.5 180.5 270.1 184.9 270.1H291C296.3 270.1 300.7 274.4 300.7 279.8V332.8C300.7 337.2 304.3 340.8 308.7 340.8H326.4C338.3 340.8 348.7 348.5 352.4 359.8C352.6 360.4 352.9 361 353.2 361.6C355.5 370 356.7 384.5 357.2 396.9C328.1 418.9 292.2 430.9 255.7 430.9C252.7 430.9 249.6 430.8 246.3 430.6L246 368C246 363.6 242.5 360.1 238.1 360C238 360 225 359.7 217 350.1C210.6 342.5 208.6 330.8 211.1 315.3C211.5 312.7 210.6 310.1 208.7 308.3L98 201.8C122.8 136.6 185.5 93.1 255.7 93.1ZM86.8 261.9C86.8 247 88.7 232.5 92.5 218.6L194.7 317C192.5 335.4 196 350 204.9 360.6C212.8 369.8 223 373.6 230 375L230.3 428.8C147.9 416.6 86.8 346.3 86.8 261.9ZM255.1 461.1C262.7 461.1 268.9 467.3 268.9 474.9C268.9 482.5 262.7 488.7 255.1 488.7C247.5 488.7 241.3 482.5 241.3 474.9C241.3 467.3 247.5 461.1 255.1 461.1ZM51.9 257.8C51.9 265.4 45.7 271.6 38.1 271.6C30.5 271.6 24.3 265.4 24.3 257.8C24.3 250.2 30.5 244 38.1 244C45.7 244 51.9 250.2 51.9 257.8ZM255.1 54.6C247.5 54.6 241.3 48.4 241.3 40.8C241.3 33.2 247.5 27 255.1 27C262.7 27 268.9 33.2 268.9 40.8C268.9 48.4 262.7 54.6 255.1 54.6ZM472.2 244C479.8 244 486 250.2 486 257.8C486 265.4 479.8 271.6 472.2 271.6C464.6 271.6 458.4 265.4 458.4 257.8C458.4 250.2 464.6 244 472.2 244Z" fill="black"/>
<path d="M33.8 62L36.4 59.4L33.8 56.8C30.7 53.7 30.7 48.6 33.8 45.5C36.9 42.4 42 42.4 45.1 45.5L47.7 48.1L50.3 45.5C53.4 42.4 58.5 42.4 61.6 45.5C64.7 48.6 64.7 53.7 61.6 56.8L59 59.4L61.6 62C64.7 65.1 64.7 70.2 61.6 73.3C60 74.9 58 75.6 55.9 75.6C53.8 75.6 51.8 74.8 50.2 73.3L47.6 70.7L45 73.3C43.4 74.9 41.4 75.6 39.3 75.6C37.2 75.6 35.2 74.8 33.6 73.3C30.6 70.2 30.6 65.2 33.8 62ZM483.9 453.4H480.2V449.7C480.2 445.3 476.6 441.7 472.2 441.7C467.8 441.7 464.2 445.3 464.2 449.7V453.4H460.5C456.1 453.4 452.5 457 452.5 461.4C452.5 465.8 456.1 469.4 460.5 469.4H464.2V473.1C464.2 477.5 467.8 481.1 472.2 481.1C476.6 481.1 480.2 477.5 480.2 473.1V469.4H483.9C488.3 469.4 491.9 465.8 491.9 461.4C491.9 457 488.3 453.4 483.9 453.4ZM507.6 154.4C480.4 90.6 430.5 39.9 367 11.7C362.1 9.50001 356.4 11.7 354.3 16.6C352.1 21.5 354.3 27.2 359.2 29.3C418.1 55.5 464.6 102.6 489.9 161.9C491.5 165.6 495 167.8 498.8 167.8C500.1 167.8 501.3 167.5 502.6 167C507.4 165 509.7 159.3 507.6 154.4ZM134 485.5C83.8 458.3 43.9 414.4 21.5 361.9C19.4 357 13.7 354.7 8.80003 356.8C3.90003 358.9 1.60003 364.6 3.70003 369.5C27.8 426 70.8 473.3 124.8 502.5C126.3 503.3 127.8 503.7 129.4 503.7C132.8 503.7 136.2 501.9 137.9 498.6C140.4 493.9 138.7 488 134 485.5ZM472.2 55.7C478.1 55.7 482.8 51 482.8 45.1C482.8 39.2 478.1 34.5 472.2 34.5C466.3 34.5 461.6 39.2 461.6 45.1C461.6 50.9 466.3 55.7 472.2 55.7Z" fill="black"/>
<path d="M428.2 476.6V498.1H372V476.6H428.2Z" fill="#181818"/>
<path d="M499.4 413.9H477.9V357.7H499.4V413.9ZM20.2 465.5L46.7 492H20.2V465.5Z" fill="#6428C7"/>
</svg>
