<svg width="481" height="514" viewBox="0 0 481 514" fill="none" xmlns="http://www.w3.org/2000/svg">
<path d="M200.52 105.823H201.435L201.892 105.366C200.52 104.452 200.52 103.08 199.606 102.166C199.149 101.709 198.692 102.166 197.777 102.166C198.692 101.252 199.149 99.8803 200.977 105.366C202.349 106.28 202.806 107.195 203.72 108.109C204.635 108.566 205.549 109.937 206.463 110.852C208.292 109.937 209.206 110.395 210.12 113.137L210.577 113.595C212.406 114.052 213.777 114.966 214.235 115.88C215.606 116.795 216.52 119.08 217.435 119.08C220.177 119.537 221.549 122.28 223.835 124.109C225.663 124.566 225.663 125.937 226.577 126.852C228.406 129.137 230.692 130.509 232.52 132.337C237.549 136.452 243.035 141.937 247.606 146.509C253.549 151.995 259.949 157.937 265.892 163.423C272.292 169.366 278.692 174.395 285.549 179.88C291.035 184.452 297.435 189.023 303.377 193.137C307.949 196.337 312.52 199.995 317.549 203.195C319.377 203.652 320.292 203.652 320.292 205.937H321.206C322.12 205.937 322.577 205.48 323.035 205.937C323.492 206.395 324.406 207.766 325.32 207.766C327.606 208.68 330.349 210.966 333.092 212.337C336.292 214.166 339.035 216.452 342.235 218.28C344.977 220.109 347.263 220.109 349.549 221.937C355.035 224.68 360.52 228.337 365.549 231.537C375.606 237.937 386.12 242.966 396.635 249.823C410.806 258.966 424.063 270.395 435.949 285.023C438.692 288.68 440.977 291.423 443.263 295.537L423.606 271.766L423.149 272.223C436.406 285.937 446.463 302.395 456.063 319.309L455.606 317.48C456.52 318.395 457.435 320.223 457.435 321.137C457.892 322.052 458.349 322.966 458.349 323.88C459.72 322.966 459.72 325.709 460.177 326.166C461.092 326.623 461.549 328.452 462.006 328.909C462.92 331.195 462.463 334.395 464.292 335.309C464.292 335.309 463.377 337.595 465.206 337.595C464.749 339.88 466.577 342.623 467.492 344.909C468.406 345.366 468.406 346.737 468.406 347.652C470.692 353.137 472.52 359.08 474.806 364.566C475.263 365.48 475.263 365.48 475.263 366.395C476.177 368.68 476.635 370.509 476.635 372.795C478.92 384.223 481.206 396.109 480.749 407.537C480.292 408.909 479.835 410.737 480.292 413.023C479.835 415.766 480.292 418.966 480.292 421.709C479.835 427.652 479.377 432.68 478.006 438.166C475.263 451.423 471.149 462.852 465.206 473.823C459.263 484.795 451.492 492.109 442.349 498.509C437.777 501.709 433.206 504.452 427.72 506.737C422.692 508.566 417.663 510.852 412.177 511.766C406.692 512.68 401.206 513.137 395.72 513.137C389.777 512.223 382.92 510.395 376.52 509.48C375.149 509.023 374.235 507.652 372.863 507.652C371.035 507.195 368.749 506.737 367.377 504.909C366.92 504.452 366.92 504.452 366.92 504.452C366.463 503.995 365.549 504.909 365.092 504.452C356.406 498.966 348.177 493.937 339.949 489.366C328.977 482.509 318.463 473.823 307.035 470.166C302.463 467.88 297.435 466.509 293.32 465.137C287.377 463.309 280.52 461.023 274.12 461.48C265.435 460.566 256.292 459.652 247.606 458.737C238.006 458.28 227.949 456.909 218.806 452.337C200.52 444.109 184.977 429.023 171.72 412.109C161.206 399.309 152.52 385.595 142.006 372.337C125.549 349.937 110.92 327.08 97.206 302.852C90.806 291.88 84.8632 279.537 76.1774 269.937C71.606 264.909 67.9489 260.337 63.8346 255.766C56.5203 247.537 49.206 239.766 42.3489 231.995C33.206 221.48 25.8917 208.223 19.4917 194.509C15.3774 186.28 13.0917 177.595 8.97744 169.366C5.77744 161.595 3.49173 153.366 2.57745 145.595C-0.165412 130.966 -0.622556 114.509 0.748873 100.795C1.20602 87.9945 3.03459 77.0231 5.77744 67.4231C9.43459 50.0517 17.6632 36.3374 28.6346 26.2803C31.3774 23.5374 35.4917 20.7945 38.2346 15.766C39.1489 13.4803 41.8917 12.1088 44.6346 10.2803C47.8346 7.99454 51.9489 7.08025 55.606 4.3374C64.2917 -0.234032 74.3489 -0.691175 84.8632 0.680254C92.6346 0.680254 100.406 3.42311 107.72 6.62311C112.292 9.36597 117.32 11.1945 121.892 13.9374C126.463 17.1374 131.035 21.2517 135.149 25.366C146.577 34.5088 153.892 47.766 163.492 59.1945C167.606 64.6803 171.72 71.0803 176.749 76.566C180.406 80.6803 183.149 83.4231 186.806 87.5374C187.72 88.4517 188.177 89.366 188.635 91.1945C189.092 91.6517 188.635 92.1088 188.635 92.1088C189.092 91.6517 189.549 92.1088 190.006 91.6517C190.92 90.7374 191.377 89.8231 191.835 91.6517C192.292 92.566 193.206 94.8517 194.12 94.8517C196.406 96.2231 195.949 97.5945 195.035 98.5088C195.035 98.5088 195.492 98.966 195.949 99.4231C196.406 100.337 196.863 100.795 197.32 101.252C197.777 102.166 198.235 102.623 198.692 103.08C198.692 103.995 199.606 104.909 200.52 105.823ZM256.749 449.595C259.949 452.337 259.949 450.966 260.863 449.137C260.863 450.052 260.863 450.966 261.32 451.88L264.52 450.052L260.863 449.137C259.492 449.595 258.577 449.595 256.749 449.595ZM344.52 272.68L344.063 273.137C353.206 283.652 363.72 294.623 372.863 306.509C382.463 317.937 391.149 329.823 400.749 341.709C395.263 329.823 351.377 275.88 344.52 272.68ZM388.406 343.08C369.663 316.109 349.549 291.88 328.063 269.937L388.406 343.08ZM340.863 323.423C341.777 325.709 342.235 326.623 343.606 327.537C351.377 334.852 358.692 344.909 365.549 354.052C373.32 364.566 380.177 375.08 387.492 385.595C387.949 386.509 388.406 386.966 388.863 387.423C383.377 372.337 349.549 329.366 340.863 323.423ZM364.635 286.852C371.035 295.537 377.892 304.68 384.292 312.909C390.692 320.223 396.635 329.366 403.035 337.595C404.406 338.509 405.32 339.88 406.235 340.795H407.149C407.149 339.423 407.149 339.423 406.692 338.966C406.235 337.137 405.32 335.309 404.406 334.395C403.949 333.48 402.577 332.566 401.663 331.652C400.749 330.737 400.292 329.823 399.835 327.995C399.377 326.623 397.092 324.337 395.72 322.509C392.977 319.309 390.692 316.566 388.406 313.823C382.463 306.052 376.52 297.823 369.206 290.509C367.377 288.68 366.463 288.223 364.635 286.852ZM190.463 410.28C188.177 407.995 185.892 405.252 183.606 402.509C182.235 401.137 179.949 398.852 178.577 397.023C175.377 393.366 173.092 390.623 170.806 387.88C170.349 386.966 169.892 386.509 169.435 386.052C169.435 386.052 168.977 385.595 168.52 386.052V386.966C169.435 387.423 169.435 388.795 170.349 389.709C171.72 391.08 173.092 393.366 174.463 395.195C176.292 397.48 177.663 399.766 179.492 402.052C179.949 403.88 182.235 404.795 183.606 406.623C184.977 407.537 185.435 408.452 186.349 409.366C189.092 412.109 190.92 414.395 193.206 417.137L193.663 417.595C195.949 418.966 197.777 420.337 200.52 421.709C196.406 417.595 194.12 413.023 190.463 410.28ZM178.12 417.137C149.777 380.109 121.892 342.166 98.1203 301.023C120.977 342.623 148.863 380.566 178.12 417.137ZM340.863 301.48L340.406 301.937C340.863 303.766 342.235 306.052 343.149 306.966C353.663 320.223 364.177 332.109 373.777 344.452C375.149 345.823 376.977 348.566 378.806 349.937C366.92 333.48 354.577 317.48 340.863 301.48ZM200.52 314.737C201.892 316.566 203.263 317.48 204.635 319.309C204.635 319.309 205.549 319.309 206.463 319.309C205.549 317.937 205.549 316.566 205.092 316.109C204.177 314.737 201.435 313.366 201.892 312.909C202.349 310.166 197.777 310.623 198.692 307.423C197.777 307.423 196.863 306.052 196.406 305.595C193.206 302.395 190.92 298.737 189.092 295.08C186.806 289.595 183.149 287.766 180.406 282.737C179.949 281.823 179.492 281.366 179.035 280.909C185.892 292.337 193.663 304.223 200.52 314.737ZM391.606 399.766C380.177 378.28 366.463 360.452 350.92 342.166C365.092 360.909 379.263 379.652 391.606 399.766ZM177.663 288.223C183.149 295.995 187.72 304.68 193.206 312.452C195.949 315.195 198.235 319.309 200.977 322.509C201.435 322.966 201.892 322.509 202.349 322.966C201.892 322.052 202.349 321.595 201.892 321.137C195.035 310.623 187.72 299.652 180.406 288.68C178.577 285.937 176.749 282.737 174.92 279.995C174.463 279.08 174.006 278.623 173.549 278.166V278.623C174.92 281.366 176.749 284.109 177.663 288.223ZM75.2632 230.166L47.3774 188.566C54.6917 203.652 63.8346 218.737 75.2632 230.166ZM171.263 293.252C173.549 296.452 175.835 300.566 178.12 303.766C182.235 309.252 186.349 316.109 190.92 322.052C191.377 322.966 191.835 323.423 192.292 323.88H193.206C192.749 322.966 193.206 322.509 192.749 322.052C190.006 318.395 186.806 313.823 184.063 309.252C177.663 300.109 171.72 290.509 165.777 280.909C164.863 279.995 163.949 279.537 163.035 278.623C165.777 283.652 167.606 287.766 171.263 293.252ZM186.806 276.795C189.092 280.452 191.377 283.195 193.663 285.937C196.406 288.68 198.235 290.966 200.52 293.709C201.892 295.537 204.177 297.823 206.006 300.109C207.377 301.48 208.749 303.309 210.12 303.766H211.035C210.577 302.852 211.035 302.395 210.577 301.937C209.206 300.109 206.92 299.195 206.006 297.366C202.806 294.166 200.52 290.052 197.777 286.852C196.406 285.48 193.663 283.652 192.749 281.823C191.835 279.995 190.006 279.08 188.635 277.252C185.435 274.052 183.606 270.395 180.863 267.195L179.492 268.109C181.777 271.309 184.063 274.052 186.806 276.795ZM350.463 371.423C344.063 362.28 336.749 353.137 328.52 344.909C328.063 343.995 327.606 343.537 326.692 343.537C327.149 343.995 327.149 345.366 327.606 345.823C334.463 353.595 341.32 361.823 348.177 369.595C349.092 370.966 350.006 370.966 350.463 371.423ZM313.435 327.537C310.235 324.795 308.406 322.052 306.12 318.395C304.749 316.566 302.92 315.195 301.549 313.366C299.72 311.537 298.349 311.08 296.977 309.252C296.52 308.795 295.606 309.709 295.606 309.709C295.606 311.08 295.606 311.08 296.063 311.537C301.549 317.937 307.492 323.423 312.977 329.366C313.435 330.28 313.892 330.737 314.806 330.737C314.349 330.28 314.349 328.909 313.892 328.452C313.892 327.995 313.892 327.995 313.435 327.537ZM378.806 395.652C371.035 382.395 362.806 370.966 353.663 359.995L378.806 395.652ZM287.377 450.509C281.892 446.852 277.32 448.223 272.292 449.137C271.835 449.595 271.835 449.595 271.377 450.052L272.292 450.509C275.492 451.423 278.235 452.337 281.435 451.423C283.72 451.423 286.006 452.795 288.292 452.337C287.835 451.423 287.835 451.423 287.377 450.509ZM343.149 308.337L342.235 309.252L369.663 342.166L343.149 308.337ZM14.9203 110.395C14.9203 111.309 15.3774 113.137 13.5489 111.766L13.0917 112.223C12.6346 112.68 13.0917 113.137 13.0917 113.137C15.3774 112.68 14.4632 113.595 14.4632 113.595C14.4632 116.795 14.4632 119.08 14.9203 121.366L17.6632 91.1945H16.7489C15.8346 97.5945 15.3774 103.995 14.9203 110.395ZM208.749 318.395C209.663 319.766 210.577 319.766 211.492 318.852C211.492 318.852 211.035 317.023 210.577 316.566C206.92 312.452 204.177 309.709 200.52 305.595C200.063 304.68 199.606 304.223 198.692 304.223C201.892 308.795 206.006 313.366 208.749 318.395ZM221.549 281.366L241.663 303.766L242.12 303.309C235.72 295.08 228.406 289.595 221.549 281.366ZM353.206 377.366L352.749 377.823L364.635 394.737C365.092 394.28 365.092 394.28 365.549 393.823L353.206 377.366ZM58.3489 105.366C58.3489 104.452 56.9774 103.537 56.5203 103.08C56.0632 102.623 56.0632 102.623 55.606 103.08V103.995C55.1489 104.452 55.1489 104.452 55.1489 104.452C55.606 104.909 55.1489 105.366 55.1489 105.366C58.3489 106.28 56.0632 108.109 56.9775 110.395C59.2632 108.109 59.7203 107.652 58.3489 105.366ZM60.1774 97.1374C59.7203 98.966 63.8346 109.48 66.5774 111.766L60.1774 97.1374ZM444.177 301.937C444.635 302.395 444.635 303.766 445.549 304.223C445.092 303.309 445.092 301.937 444.635 301.48C440.52 294.623 435.492 287.766 430.92 281.823L444.177 301.937ZM165.777 382.852H166.692V381.937C164.863 379.652 162.12 377.366 160.292 375.08L159.377 375.995C161.206 378.28 163.949 381.023 165.777 382.852ZM344.977 292.795L328.977 274.052L344.977 292.795ZM250.349 300.566L250.806 300.109L242.12 290.966L250.349 300.566ZM200.52 114.509C200.063 114.052 199.606 114.509 198.692 114.509C198.692 114.509 199.149 114.966 199.606 115.423C200.063 115.88 200.063 115.88 200.52 116.337C200.977 117.709 203.263 118.623 204.177 118.166C202.806 116.337 201.435 114.509 200.52 114.509ZM59.2632 152.909L58.806 153.366L66.1203 167.08L59.2632 152.909ZM160.749 298.737L166.692 307.88L160.749 298.737ZM153.435 366.395C153.892 365.937 152.977 365.937 153.435 366.395L152.977 366.852C153.435 368.68 155.263 370.052 157.092 371.423C156.635 369.595 154.806 368.223 153.435 366.395ZM277.777 326.166L277.32 326.623L282.349 333.48L282.806 333.023L277.777 326.166ZM348.177 327.995L348.635 327.537L343.606 322.052L343.149 322.509L348.177 327.995ZM305.206 263.08L304.749 263.537L311.149 271.766L311.606 271.309L305.206 263.08ZM142.463 353.137H143.377V352.223C142.92 351.766 142.006 349.937 141.092 349.023H140.177C141.092 350.395 141.549 351.766 142.463 353.137ZM43.7203 138.28H42.806L44.6346 144.223L45.0917 143.766L43.7203 138.28ZM195.492 241.595L195.949 241.137L191.377 236.109L195.492 241.595ZM387.035 307.88C386.12 307.88 386.12 307.88 386.12 307.88L386.577 308.337C388.406 310.166 389.777 310.623 391.149 312.452C390.235 311.537 388.863 309.709 387.035 307.88ZM190.463 325.252L190.92 324.795L186.806 320.223L190.463 325.252ZM215.149 309.252C214.235 308.337 213.32 306.966 212.863 306.052L212.406 306.509L211.949 306.966C212.863 307.423 213.777 308.795 214.692 309.709L215.149 309.252ZM70.2346 75.6517H71.1489L69.3203 71.9945L68.8632 72.4517L70.2346 75.6517Z" fill="#6428C7"/>
<path d="M264.978 461.023H252.178V385.137C252.178 381.48 254.92 378.737 258.578 378.737H296.52C314.349 378.737 328.52 364.566 328.52 346.737V289.595C328.52 285.937 331.263 283.195 334.92 283.195H366.92V278.166L329.435 196.795C328.978 196.337 328.978 194.966 328.978 194.052C328.978 124.109 271.835 66.966 201.892 66.966C131.949 66.966 74.3489 124.109 74.3489 194.052C74.3489 231.08 87.6061 263.537 100.406 293.709C113.206 324.337 125.092 352.223 125.092 384.68V461.023H112.292V385.137C112.292 355.88 100.863 328.452 88.9775 299.195C75.7204 266.737 61.549 233.823 61.549 194.509C61.549 117.709 124.635 54.6231 201.435 54.6231C278.235 54.6231 340.863 116.337 341.32 193.137L378.806 274.509C379.263 274.966 379.263 276.337 379.263 277.252V290.052C379.263 293.709 376.52 296.452 372.863 296.452H340.863V347.195C340.863 371.88 321.206 391.537 296.52 391.537H264.52L264.978 461.023Z" fill="#232829"/>
<path d="M258.578 378.737H239.378V391.537H258.578V378.737Z" fill="#181818"/>
<path d="M220.635 286.852C219.263 286.852 217.892 286.395 216.977 285.48C215.606 284.109 214.235 282.737 214.235 280.909C213.777 274.509 208.292 269.48 201.435 269.48C195.035 269.48 189.549 274.509 188.635 280.909C188.635 282.737 187.263 284.109 185.892 285.48C184.52 286.852 182.692 286.852 180.863 286.852C168.063 284.109 156.177 279.08 145.206 272.223C143.835 270.852 142.463 269.48 142.463 267.652C142.463 265.823 142.463 263.995 143.835 262.623C147.492 257.595 147.492 250.737 143.377 246.166C138.806 241.595 131.492 241.137 126.92 245.709C125.549 247.08 123.72 247.537 121.892 247.08C120.063 247.08 118.692 245.709 117.32 244.337C110.463 233.366 105.435 221.48 102.692 208.68C102.235 206.852 102.692 205.023 104.063 203.652C105.435 202.28 106.806 200.909 108.635 200.909C115.035 200.452 120.063 194.966 120.063 188.109C120.063 181.252 115.035 176.223 108.635 175.309C106.806 175.309 105.435 173.937 104.063 172.566C102.235 170.737 102.235 168.909 102.235 167.537C104.977 154.737 110.006 142.852 116.863 131.88C118.235 130.509 119.606 129.137 121.435 129.137C123.263 129.137 125.092 129.137 126.463 130.509C131.492 134.166 138.349 134.166 142.92 130.052C147.492 125.48 147.949 118.166 143.377 113.595C142.006 112.223 141.549 110.395 142.006 108.566C142.006 106.737 143.377 105.366 144.749 103.995C155.72 97.1374 167.606 92.1088 180.406 89.366C182.235 88.9088 184.063 89.366 185.435 90.7374C186.806 92.1088 188.177 93.4803 188.177 95.3088C188.635 101.709 194.12 106.737 200.977 106.737C207.377 106.737 212.863 101.709 213.777 95.3088C213.777 93.4803 215.149 92.1088 216.52 90.7374C217.892 89.366 219.72 89.366 221.549 89.366C234.349 92.1088 246.235 97.1374 257.206 103.995L250.349 114.966C242.577 109.937 233.892 106.28 224.749 103.537C221.092 113.137 211.949 119.537 201.435 119.537C190.92 119.537 181.777 113.137 178.12 103.537C171.263 105.366 163.949 108.566 157.549 111.766C161.206 121.366 159.377 132.337 152.52 139.652C144.749 147.423 134.235 149.252 124.635 144.68C120.977 151.08 118.235 157.937 116.406 165.252C126.006 168.909 132.406 178.052 132.406 188.566C132.406 199.537 126.006 208.223 116.406 211.88C118.235 218.737 121.435 226.052 124.635 232.452C134.235 228.795 145.206 230.623 152.52 237.48C160.292 245.252 162.12 255.766 157.549 265.366C163.949 269.023 170.806 271.766 178.12 273.595C181.777 263.995 190.92 257.595 201.435 257.595C211.949 257.595 221.092 263.995 224.749 273.595C233.435 270.852 242.577 267.195 250.349 262.166L257.206 273.137C246.235 279.995 234.349 285.023 221.549 287.766C221.092 286.852 220.635 286.852 220.635 286.852ZM285.549 243.88L274.578 237.023C279.606 229.252 283.263 220.566 286.006 211.423C276.406 207.766 270.006 198.623 270.006 188.109C270.006 177.137 276.406 168.452 286.006 164.795C283.263 156.109 279.606 146.966 274.578 139.195L285.549 132.337C292.406 143.309 297.435 155.195 300.177 167.995C300.635 169.823 300.177 171.652 298.806 173.023C297.435 174.395 296.063 175.766 294.235 175.766C287.835 176.223 282.806 181.709 282.806 188.566C282.806 195.423 287.835 200.452 294.235 201.366C296.063 201.366 297.435 202.737 298.806 204.109C300.177 205.48 300.177 207.309 300.177 209.137C297.892 221.023 292.863 232.909 285.549 243.88Z" fill="#181818"/>
<path d="M468.406 276.795H455.606H455.149L201.435 238.852C173.549 238.852 151.149 215.995 151.149 188.109C151.149 160.223 173.549 136.909 201.435 136.909L455.149 98.966H455.606H468.406V111.766H456.52L202.806 149.709H202.349C181.32 149.709 164.406 167.08 164.406 187.652C164.406 208.223 181.778 225.595 202.349 225.595H202.806L456.52 263.537H468.406C468.406 263.537 468.406 276.795 468.406 276.795Z" fill="#232829"/>
<path d="M392.063 181.252H379.263V194.052H392.063V181.252Z" fill="#181818"/>
<path d="M417.663 181.252H404.863V194.052H417.663V181.252Z" fill="#181818"/>
<path d="M443.263 181.252H430.463V194.052H443.263V181.252Z" fill="#181818"/>
<path d="M201.435 213.252C187.263 213.252 175.835 201.823 175.835 187.652C175.835 173.48 187.263 162.052 201.435 162.052C215.606 162.052 227.035 173.48 227.035 187.652C227.035 201.823 215.606 213.252 201.435 213.252ZM201.435 175.309C194.578 175.309 188.635 181.252 188.635 188.109C188.635 194.966 194.578 200.909 201.435 200.909C208.292 200.909 214.235 194.966 214.235 188.109C214.235 181.252 208.292 175.309 201.435 175.309Z" fill="#232829"/>
</svg>
