<svg width="512" height="512" viewBox="0 0 512 512" fill="none" xmlns="http://www.w3.org/2000/svg">
<path d="M403.8 87.1V460.4H103V439C103 444.4 104 393.1 167 393.1L363.1 393.6C365.2 395.7 364.1 80.3 364.1 80.4H395.5C400.1 80.3 403.8 83.3 403.8 87.1Z" fill="#6428C7"/>
<path d="M395.5 117.2V85.3H111V130.9V453.2H395.5V152.9C395.5 148.5 399.1 144.9 403.5 144.9C407.9 144.9 411.5 148.5 411.5 152.9V461.2C411.5 465.6 407.9 469.2 403.5 469.2H103C98.6 469.2 95 465.6 95 461.2V130.8V77.3C95 72.9 98.6 69.3 103 69.3H403.5C407.9 69.3 411.5 72.9 411.5 77.3V117.2C411.5 121.6 407.9 125.2 403.5 125.2C399.1 125.2 395.5 121.6 395.5 117.2ZM207 162.8H168.1V145.6C168.1 141.2 164.5 137.6 160.1 137.6C155.7 137.6 152.1 141.2 152.1 145.6V170.8C152.1 175.2 155.7 178.8 160.1 178.8H207C211.4 178.8 215 175.2 215 170.8C215 166.4 211.4 162.8 207 162.8ZM207 227.3H168.1V210.1C168.1 205.7 164.5 202.1 160.1 202.1C155.7 202.1 152.1 205.7 152.1 210.1V235.3C152.1 239.7 155.7 243.3 160.1 243.3H207C211.4 243.3 215 239.7 215 235.3C215 230.9 211.4 227.3 207 227.3ZM207 290.9H168.1V273.7C168.1 269.3 164.5 265.7 160.1 265.7C155.7 265.7 152.1 269.3 152.1 273.7V298.9C152.1 303.3 155.7 306.9 160.1 306.9H207C211.4 306.9 215 303.3 215 298.9C215 294.5 211.4 290.9 207 290.9ZM160.1 339.2C155.7 339.2 152.1 342.8 152.1 347.2V372.4C152.1 376.8 155.7 380.4 160.1 380.4H207C211.4 380.4 215 376.8 215 372.4C215 368 211.4 364.4 207 364.4H168.1V347.2C168.1 342.8 164.5 339.2 160.1 339.2ZM288.9 404.4H310C314.4 404.4 318 400.8 318 396.4C318 392 314.4 388.4 310 388.4H296.9V364.1C296.9 360.2 294 356.8 290.2 356.2C266.9 352.5 249.2 338 245 320.3H257.2C261.6 320.3 265.2 316.7 265.2 312.3C265.2 307.9 261.6 304.3 257.2 304.3H236.1C231.7 304.3 228.1 307.9 228.1 312.3C228.1 339.5 249.9 363.2 280.9 370.7V396.4C280.9 400.9 284.5 404.4 288.9 404.4ZM236.1 229.9C240.5 229.9 244.1 226.3 244.1 221.9C244.1 201.2 262 186.2 289.7 183.5C293.8 183.1 296.9 179.7 296.9 175.5V151.6H310C314.4 151.6 318 148 318 143.6C318 139.2 314.4 135.6 310 135.6H288.9C284.5 135.6 280.9 139.2 280.9 143.6V168.5C249 174 228.1 194.8 228.1 221.8C228.1 226.3 231.7 229.9 236.1 229.9ZM313.8 295.9C308.1 292.9 301.1 290.3 293.4 288.3L291 287.6C288.6 287 286 287.5 284.1 289C282.1 290.5 281 292.9 281 295.3V342.4C281 346.8 284.6 350.4 289 350.4C293.4 350.4 297 346.8 297 342.4V306C298.8 306.6 300.5 307.3 302.1 308V343.5C302.1 345.8 303.1 348 304.8 349.5C306.3 350.8 308.2 351.5 310.1 351.5C310.4 351.5 310.7 351.5 311 351.4C335.3 348.6 349.8 334.3 349.8 313.1C349.8 308.7 346.2 305.1 341.8 305.1C337.4 305.1 333.8 308.7 333.8 313.1C333.8 325 326.5 330.8 318.1 333.6V303C318.1 300 316.4 297.3 313.8 295.9ZM311.3 168C306.9 167.3 302.9 170.3 302.2 174.7C301.5 179.1 304.5 183.1 308.9 183.8C332.2 187.4 349.9 201.9 354 219.8H341.8C337.4 219.8 333.8 223.4 333.8 227.8C333.8 232.2 337.4 235.8 341.8 235.8H362.9C367.3 235.8 370.9 232.2 370.9 227.8C370.9 198.4 345.8 173.3 311.3 168ZM370.9 313.2C370.9 296.7 364.1 273.7 332 257.6C324 253.6 314.7 250.2 304.3 247.4C265.2 237 265.2 226.8 265.2 221.9C265.2 213.1 273.6 208.7 280.9 206.5V228.5C280.9 231.7 282.8 234.6 285.8 235.9C291.3 238.2 297.8 240.4 305.6 242.5C305.9 242.6 306.3 242.7 306.6 242.8C307 242.9 307.5 243.1 307.9 243.2C310.3 243.9 312.9 243.4 314.9 241.9C316.9 240.4 318.1 238 318.1 235.5V197.5C318.1 193.1 314.5 189.5 310.1 189.5C305.7 189.5 302.1 193.1 302.1 197.5V224.8C300.3 224.2 298.6 223.7 297 223.1V196.8C297 194.5 296 192.3 294.3 190.8C292.6 189.3 290.3 188.6 288 188.9C264.1 191.9 249.3 204.6 249.3 222C249.3 241.5 264.1 253.3 300.2 263C309.5 265.5 317.8 268.5 324.8 272C344.8 282 354.9 295.9 354.9 313.3C354.9 331.6 343 353.9 309.4 356.9C305 357.3 301.7 361.2 302.1 365.6C302.5 369.8 306 372.9 310.1 372.9C310.3 372.9 310.6 372.9 310.8 372.9C352.3 369.1 370.9 340.2 370.9 313.2Z" fill="black"/>
<path d="M453.2 125.3H395.1C390.7 125.3 387.1 121.7 387.1 117.3C387.1 112.9 390.7 109.3 395.1 109.3H453.2C457.6 109.3 461.2 112.9 461.2 117.3C461.2 121.7 457.6 125.3 453.2 125.3ZM455.5 210.7C455.5 206.3 451.9 202.7 447.5 202.7H424.6C420.2 202.7 416.6 206.3 416.6 210.7C416.6 215.1 420.2 218.7 424.6 218.7H447.5C451.9 218.7 455.5 215.1 455.5 210.7ZM461.9 465.2C456 465.2 451.1 470 451.1 476C451.1 482 455.9 486.8 461.9 486.8C467.8 486.8 472.7 482 472.7 476C472.7 470 467.8 465.2 461.9 465.2ZM76.5 212.4H60.8V196.6C60.8 192.2 57.2 188.6 52.8 188.6C48.4 188.6 44.8 192.2 44.8 196.6V212.4H29C24.6 212.4 21 216 21 220.4C21 224.8 24.6 228.4 29 228.4H44.8V244.2C44.8 248.6 48.4 252.2 52.8 252.2C57.2 252.2 60.8 248.6 60.8 244.2V228.4H76.6C81 228.4 84.6 224.8 84.6 220.4C84.6 216 80.9 212.4 76.5 212.4ZM445.2 37.4C445.2 33 441.6 29.4 437.2 29.4H363.4C359 29.4 355.4 33 355.4 37.4C355.4 41.8 359 45.4 363.4 45.4H437.2C441.6 45.4 445.2 41.8 445.2 37.4ZM114.2 43.4H40.4C36 43.4 32.4 47 32.4 51.4C32.4 55.8 36 59.4 40.4 59.4H114.2C118.6 59.4 122.2 55.8 122.2 51.4C122.2 47 118.6 43.4 114.2 43.4Z" fill="black"/>
<path d="M438.8 344.5V300.9H482.4V344.5H438.8Z" fill="#6428C7"/>
<path d="M438.8 425.1V381.5H482.4V425.1H438.8Z" fill="#6428C7"/>
<path d="M91.4 489H29V418.9L91.4 489Z" fill="#181818"/>
</svg>
