<svg width="512" height="512" viewBox="0 0 512 512" fill="none" xmlns="http://www.w3.org/2000/svg">
<path d="M115.8 232.6C115.8 195.9 145.6 166.1 182.3 166.1V267.3L133.2 265.9C125 265.9 115.8 255.8 115.8 232.6ZM315.5 221.5V88.5C278.8 88.5 249 118.3 249 155C249 191.7 278.7 221.5 315.5 221.5ZM93.7 310.3V465.6H426.4V310.3H93.7Z" fill="#6428C7"/>
<path d="M426.4 473.5H82.6C59.8 473.5 41.3 455 41.3 432.2V254.8C41.3 232 59.8 213.5 82.6 213.5H110.4C114.3 199 122.5 185.8 134.1 175.9C147.6 164.4 164.8 158 182.5 158C200.2 158 217.4 164.3 230.9 175.9C242.5 185.8 250.7 199 254.6 213.5H269.5C267 211.5 264.6 209.3 262.3 207C248.6 193 241.1 174.5 241.1 155C241.1 113.9 274.5 80.5 315.6 80.5C356.7 80.5 390 113.9 390 155C390 171.3 384.8 186.8 375 199.8C372.3 203.3 367.3 204 363.8 201.4C360.3 198.7 359.6 193.7 362.2 190.2C369.9 180 374 167.8 374 155.1C374 122.8 347.7 96.6 315.5 96.6C283.3 96.6 257 122.9 257 155.1C257 170.4 262.9 185 273.7 196C284.8 207.4 299.7 213.7 315.6 213.7H404.3C408.7 213.7 412.3 217.3 412.3 221.7V243.9C412.3 248.3 408.7 251.9 404.3 251.9C399.9 251.9 396.3 248.3 396.3 243.9V229.7H248C244.1 229.7 240.8 226.9 240.1 223C235.3 194.7 211.1 174.2 182.4 174.2C153.7 174.2 129.4 194.7 124.7 223C124.1 226.9 120.7 229.7 116.8 229.7H82.6C68.7 229.7 57.3 241 57.3 255V432.4C57.3 446.3 68.6 457.7 82.6 457.7H418.4V443.5C418.4 439.1 422 435.5 426.4 435.5C430.8 435.5 434.4 439.1 434.4 443.5V465.7C434.4 469.9 430.8 473.5 426.4 473.5ZM426.4 429.2C422 429.2 418.4 425.6 418.4 421.2V273.9H153.1C152.8 273.9 152.5 273.9 152.1 273.8C151.5 273.7 150.9 273.6 150.3 273.4C149.6 273.2 149 272.8 148.4 272.4C148.2 272.2 148 272.1 147.7 271.9C136.4 261.9 130 247.6 130 232.7C130 203.8 153.5 180.3 182.4 180.3C211.3 180.3 234.8 203.8 234.8 232.7C234.8 237.1 231.2 240.7 226.8 240.7C222.4 240.7 218.8 237.1 218.8 232.7C218.8 212.7 202.5 196.3 182.4 196.3C162.4 196.3 146 212.6 146 232.7C146 242.1 149.7 251.2 156.2 258H426.3C430.7 258 434.3 261.6 434.3 266V421.3C434.4 425.6 430.8 429.2 426.4 429.2ZM124.8 273.9H82.6C72.1 273.9 63.5 265.3 63.5 254.8C63.5 244.3 72.1 235.7 82.6 235.7C87 235.7 90.6 239.3 90.6 243.7C90.6 248.1 87 251.7 82.6 251.7C80.9 251.7 79.5 253.1 79.5 254.8C79.5 256.5 80.9 257.9 82.6 257.9H124.8C129.2 257.9 132.8 261.5 132.8 265.9C132.8 270.3 129.2 273.9 124.8 273.9ZM315.5 207.4C311.1 207.4 307.5 203.8 307.5 199.4C307.5 195 311.1 191.4 315.5 191.4C335.5 191.4 351.9 175.1 351.9 155C351.9 134.9 335.6 118.6 315.5 118.6C311.1 118.6 307.5 115 307.5 110.6C307.5 106.2 311.1 102.6 315.5 102.6C344.4 102.6 367.9 126.1 367.9 155C367.9 183.9 344.3 207.4 315.5 207.4Z" fill="black"/>
<path d="M389.3 46.9V25.1H484.1V46.9H389.3V46.9Z" fill="#181818"/>
<path d="M389.3 82.7V60.9H484.1V82.7H389.3Z" fill="#181818"/>
<path d="M110.2 160C110.2 164.4 106.6 168 102.2 168H86.4V183.8C86.4 188.2 82.8 191.8 78.4 191.8C74 191.8 70.4 188.2 70.4 183.8V168H54.6C50.2 168 46.6 164.4 46.6 160C46.6 155.6 50.2 152 54.6 152H70.4V136.2C70.4 131.8 74 128.2 78.4 128.2C82.8 128.2 86.4 131.8 86.4 136.2V152H102.2C106.6 152 110.2 155.6 110.2 160ZM493.5 449.8H489.6V445.9C489.6 441.5 486 437.9 481.6 437.9C477.2 437.9 473.6 441.5 473.6 445.9V449.8H469.7C465.3 449.8 461.7 453.4 461.7 457.8C461.7 462.2 465.3 465.8 469.7 465.8H473.6V469.7C473.6 474.1 477.2 477.7 481.6 477.7C486 477.7 489.6 474.1 489.6 469.7V465.8H493.5C497.9 465.8 501.5 462.2 501.5 457.8C501.5 453.4 497.9 449.8 493.5 449.8ZM436.4 193.4C432 193.4 428.4 197 428.4 201.4C428.4 205.8 432 209.4 436.4 209.4C451 209.4 462.8 197.6 462.8 183C462.8 168.4 451 156.6 436.4 156.6C432 156.6 428.4 160.2 428.4 164.6C428.4 169 432 172.6 436.4 172.6C442.1 172.6 446.8 177.3 446.8 183C446.8 188.7 442.2 193.4 436.4 193.4ZM223.8 74.5H82.4C78 74.5 74.4 78.1 74.4 82.5C74.4 86.9 78 90.5 82.4 90.5H223.8C228.2 90.5 231.8 86.9 231.8 82.5C231.8 78.1 228.2 74.5 223.8 74.5ZM85.5 51.9C90.5 51.9 94.5 47.8 94.5 42.9C94.5 38 90.4 33.9 85.5 33.9C80.6 33.9 76.5 38 76.5 42.9C76.5 47.8 80.5 51.9 85.5 51.9ZM115.5 51.9C120.5 51.9 124.5 47.8 124.5 42.9C124.5 38 120.4 33.9 115.5 33.9C110.6 33.9 106.5 38 106.5 42.9C106.5 47.8 110.5 51.9 115.5 51.9ZM145.5 51.9C150.5 51.9 154.5 47.8 154.5 42.9C154.5 38 150.4 33.9 145.5 33.9C140.6 33.9 136.5 38 136.5 42.9C136.5 47.8 140.5 51.9 145.5 51.9ZM469.2 313.5C469.2 309.1 465.6 305.5 461.2 305.5H389.3C384.9 305.5 381.3 309.1 381.3 313.5C381.3 317.9 384.9 321.5 389.3 321.5H461.2C465.6 321.5 469.2 317.9 469.2 313.5Z" fill="black"/>
</svg>
