<svg width="512" height="512" viewBox="0 0 512 512" fill="none" xmlns="http://www.w3.org/2000/svg">
<path fill-rule="evenodd" clip-rule="evenodd" d="M359.7 263.3H399.7C399.7 344.6 333.5 410.4 252.1 409.8C221.4 409.6 193 399.8 169.5 383.4C159.4 376.3 158.2 361.8 166.9 353.1L167 353C173.9 346.1 184.7 345.3 192.6 350.9C209.4 362.6 229.7 369.6 251.6 369.9C311.2 370.7 359.7 322.7 359.7 263.3ZM312.4 174.1C336.6 186.5 354.9 208.8 362.1 235.6H427.5C427.5 177.8 391 128.5 339.7 109.6C317.1 101.3 293.2 118.2 293.2 142.3V143.2C293.2 156.3 300.7 168.2 312.4 174.1Z" fill="#6428C7"/>
<path d="M39.9 420L100.8 480.9H39.9V420Z" fill="#6428C7"/>
<path d="M471.4 460C471.4 464.4 467.8 468 463.4 468H404.2C399.8 468 396.2 464.4 396.2 460C396.2 455.6 399.8 452 404.2 452H463.4C467.8 452 471.4 455.6 471.4 460ZM68.7 65.5C73.1 65.5 76.7 61.9 76.7 57.5C76.7 53.1 73.1 49.5 68.7 49.5C54.1 49.5 42.3 61.3 42.3 75.9C42.3 90.5 54.1 102.3 68.7 102.3C73.1 102.3 76.7 98.7 76.7 94.3C76.7 89.9 73.1 86.3 68.7 86.3C63 86.3 58.3 81.6 58.3 75.9C58.3 70.2 63 65.5 68.7 65.5ZM475.2 49.2H471.3V45.3C471.3 40.9 467.7 37.3 463.3 37.3C458.9 37.3 455.3 40.9 455.3 45.3V49.2H451.4C447 49.2 443.4 52.8 443.4 57.2C443.4 61.6 447 65.2 451.4 65.2H455.3V69.1C455.3 73.5 458.9 77.1 463.3 77.1C467.7 77.1 471.3 73.5 471.3 69.1V65.2H475.2C479.6 65.2 483.2 61.6 483.2 57.2C483.2 52.8 479.7 49.2 475.2 49.2Z" fill="black"/>
<path d="M253.2 416.9C168.5 416.9 99.6 348 99.6 263.3C99.6 178.6 168.5 109.7 253.2 109.7C257.1 109.7 260.3 112.9 260.3 116.8V256.2H399.7C403.6 256.2 406.8 259.4 406.8 263.3C406.8 348 337.9 416.9 253.2 416.9ZM246.1 124.1C172.5 127.8 113.8 188.8 113.8 263.4C113.8 340.3 176.3 402.8 253.2 402.8C327.7 402.8 388.8 344.1 392.5 270.5H253.2C249.3 270.5 246.1 267.3 246.1 263.4V124.1ZM427.5 242.7H280.9C277 242.7 273.8 239.5 273.8 235.6V89.1C273.8 85.2 277 82 280.9 82C365.6 82 434.5 150.9 434.5 235.6C434.5 239.5 431.4 242.7 427.5 242.7ZM288 228.5H420.2C416.6 157.3 359.3 99.9 288 96.4V228.5Z" fill="black"/>
</svg>
