<svg width="512" height="512" viewBox="0 0 512 512" fill="none" xmlns="http://www.w3.org/2000/svg">
<path d="M215.4 324.1H307.7C329.8 324.1 347.7 306.2 347.7 284.1V192.3C347.7 163.9 378.1 145.5 403.1 159.1C404.4 159.8 405 160.3 405 160.3C433.3 184.4 447.2 216.2 447.2 216.2C449.8 223.5 451.8 231.4 453.2 239.7C455.2 250.7 456.1 262.4 456.1 275C456.1 334.1 433.6 377.8 394.3 395.5C386.9 411.2 365 451.5 338.4 451.5C312.5 451.5 303.1 430.4 303.1 416.2V404.4H239.5C230.9 419.7 210.1 451.5 185.3 451.5C159.4 451.5 150 430.4 150 416.2V389.4C150.1 353.3 179.3 324.1 215.4 324.1Z" fill="#6428C7"/>
<path d="M338.4 459.6C320.7 459.6 310.3 451.3 304.8 444.3C298.6 436.5 295.1 426.4 295.1 416.3V412.5H244.1C232.7 431.8 211.6 459.6 185.3 459.6C167.6 459.6 157.2 451.3 151.7 444.3C145.5 436.5 142 426.4 142 416.3V394.7C125.2 387 100.2 370.8 87.9001 339.7C67.8001 335.4 51.3001 326.2 39.9001 312.7C30.9001 302 25 288.3 24.3 276C24.3 275.9 24.3 275.7 24.3 275.6V227.9C24.3 210.2 32.6 199.8 39.6 194.3C47.4 188.1 57.5 184.6 67.6 184.6H105.2C111.7 177 119 170.3 127 164.4L98.3 121.2C94.2 115.2 93.8 107.3 97.3 100.9C100.7 94.5 107.3 90.5 114.7 90.5H161.8C206.1 90.5 221 121.2 225.8 137.6H350.2C377.2 137.6 401.2 145.7 419.8 161.1H444.3C448 161 448.2 160 448.2 157.3C448.2 154.6 448 153.6 444.1 153.5C438.9 153.4 434 151.3 430.3 147.5C426.6 143.7 424.7 138.8 424.8 133.6C424.8 122.8 433.6 114 444.5 114C448.9 114 452.5 117.6 452.5 122C452.5 126.4 448.9 130 444.5 130C442.4 130 440.8 131.6 440.8 133.7V133.8C440.8 135.1 441.5 136 441.9 136.4C442.3 136.8 443.2 137.5 444.5 137.6C456.7 137.9 464.2 145.4 464.2 157.4C464.2 169.3 456.7 176.9 444.6 177.2C444.5 177.2 444.5 177.2 444.4 177.2H416.9C414.9 177.2 413.1 176.5 411.6 175.2C395.4 160.9 374.8 153.7 350.3 153.7H219.5C215.7 153.7 212.4 151 211.6 147.2C209.2 135 199.7 106.6 161.8 106.6H114.7C113.3 106.6 112.1 107.3 111.5 108.5C111.5 108.6 111.4 108.7 111.4 108.8C110.8 109.9 110.9 111.3 111.6 112.3C111.6 112.4 111.7 112.4 111.7 112.5L144.8 162.3C146 164.1 146.4 166.3 146 168.3C145.6 170.4 144.3 172.2 142.5 173.4C132.2 180.1 123.1 188.3 115.2 197.9C113.7 199.8 111.4 200.8 109 200.8H67.6C58.2 200.8 40.3 206.5 40.3 228.1V275.5C41.2 289.7 53.8 317.9 95.2 325C98.1 325.5 100.5 327.5 101.4 330.3C112.1 361.6 138.3 376.3 153 382.2C156 383.4 158 386.4 158 389.6V416.4C158 425.8 163.7 443.7 185.3 443.7C206.7 443.7 226.8 410.8 232.5 400.7C233.9 398.2 236.6 396.6 239.5 396.6H303.1C307.5 396.6 311.1 400.2 311.1 404.6V416.4C311.1 425.8 316.8 443.7 338.4 443.7C356.3 443.7 375.3 417.1 387.1 392.2C387.9 390.5 389.3 389.1 391 388.3C427.3 371.9 448.1 330.6 448.1 275C448.1 262.7 447.2 251.3 445.3 241.1V241C444 233.1 442.1 225.6 439.6 218.8C438.1 214.6 440.3 210.1 444.5 208.6C448.7 207.1 453.2 209.3 454.7 213.5C457.4 221.1 459.5 229.5 461 238.3C463 249.5 464.1 261.8 464.1 275C464.1 335.8 440.9 381.7 400.3 401.6C390.8 420.9 368.1 459.6 338.4 459.6ZM161.8 247.7C150.9 247.7 142 238.8 142 227.9V204.4C142 193.5 150.9 184.6 161.8 184.6C172.7 184.6 181.6 193.5 181.6 204.4C181.6 208.8 178 212.4 173.6 212.4C169.2 212.4 165.6 208.8 165.6 204.4C165.6 202.4 163.9 200.6 161.8 200.6C159.8 200.6 158 202.3 158 204.4V227.9C158 229.9 159.7 231.7 161.8 231.7C166.2 231.7 169.8 235.3 169.8 239.7C169.8 244.1 166.2 247.7 161.8 247.7ZM338.4 224.1H244.2C239.8 224.1 236.2 220.5 236.2 216.1C236.2 211.7 239.8 208.1 244.2 208.1H330.4V192.6C330.4 188.2 334 184.6 338.4 184.6C342.8 184.6 346.4 188.2 346.4 192.6V216.1C346.4 220.6 342.8 224.1 338.4 224.1Z" fill="black"/>
<path d="M414.2 350.8C414.2 346.4 417.8 342.8 422.2 342.8H465.2C469.6 342.8 473.2 346.4 473.2 350.8C473.2 355.2 469.6 358.8 465.2 358.8H422.2C417.8 358.8 414.2 355.2 414.2 350.8ZM451.7 380.8C451.7 376.4 448.1 372.8 443.7 372.8H369.9C365.5 372.8 361.9 376.4 361.9 380.8C361.9 385.2 365.5 388.8 369.9 388.8H443.7C448.1 388.8 451.7 385.2 451.7 380.8ZM376.4 79.5C376.4 83.9 380 87.5 384.4 87.5C388.8 87.5 392.4 83.9 392.4 79.5V63.7H408.2C412.6 63.7 416.2 60.1 416.2 55.7C416.2 51.3 412.6 47.7 408.2 47.7H392.4V31.9C392.4 27.5 388.8 23.9 384.4 23.9C380 23.9 376.4 27.5 376.4 31.9V47.7H360.6C356.2 47.7 352.6 51.3 352.6 55.7C352.6 60.1 356.2 63.7 360.6 63.7H376.4V79.5ZM52.2 392.8C47.8 392.8 44.2 396.4 44.2 400.8C44.2 412.2 34.9 421.6 23.4 421.6C19 421.6 15.4 425.2 15.4 429.6C15.4 434 19 437.6 23.4 437.6C43.7 437.6 60.2 421.1 60.2 400.8C60.2 396.4 56.6 392.8 52.2 392.8ZM102.2 421.5C90.8 421.5 81.4 412.2 81.4 400.7C81.4 396.3 77.8 392.7 73.4 392.7C69 392.7 65.4 396.3 65.4 400.7C65.4 421 81.9 437.5 102.2 437.5C106.6 437.5 110.2 433.9 110.2 429.5C110.2 425.1 106.6 421.5 102.2 421.5ZM102.2 442.8C81.9 442.8 65.4 459.3 65.4 479.6C65.4 484 69 487.6 73.4 487.6C77.8 487.6 81.4 484 81.4 479.6C81.4 468.2 90.7 458.8 102.2 458.8C106.6 458.8 110.2 455.2 110.2 450.8C110.2 446.4 106.6 442.8 102.2 442.8ZM23.5 442.8C19.1 442.8 15.5 446.4 15.5 450.8C15.5 455.2 19.1 458.8 23.5 458.8C34.9 458.8 44.3 468.1 44.3 479.6C44.3 484 47.9 487.6 52.3 487.6C56.7 487.6 60.3 484 60.3 479.6C60.2 459.3 43.7 442.8 23.5 442.8ZM464.4 451.6L475.6 440.4C478.7 437.3 478.7 432.2 475.6 429.1C472.5 426 467.4 426 464.3 429.1L453.1 440.3L441.9 429.1C438.8 426 433.7 426 430.6 429.1C427.5 432.2 427.5 437.3 430.6 440.4L441.8 451.6L430.6 462.8C427.5 465.9 427.5 471 430.6 474.1C432.2 475.7 434.2 476.4 436.3 476.4C438.4 476.4 440.4 475.6 442 474.1L453.2 462.9L464.4 474.1C466 475.7 468 476.4 470.1 476.4C472.2 476.4 474.2 475.6 475.8 474.1C478.9 471 478.9 465.9 475.8 462.8L464.4 451.6ZM35 111.3C40.9 111.3 45.8 106.5 45.8 100.5C45.8 94.5 40.9 89.8 35 89.8C29.1 89.8 24.2 94.6 24.2 100.6C24.2 106.6 29.1 111.3 35 111.3ZM298.6 52.8C298.6 67.4 286.8 79.2 272.2 79.2C257.6 79.2 245.8 67.4 245.8 52.8C245.8 38.2 257.6 26.4 272.2 26.4C286.8 26.4 298.6 38.2 298.6 52.8ZM282.6 52.8C282.6 47.1 277.9 42.4 272.2 42.4C266.5 42.4 261.8 47.1 261.8 52.8C261.8 58.5 266.5 63.2 272.2 63.2C277.9 63.2 282.6 58.5 282.6 52.8ZM161.1 24.2H118.1C113.7 24.2 110.1 27.8 110.1 32.2C110.1 36.6 113.7 40.2 118.1 40.2H161.1C165.5 40.2 169.1 36.6 169.1 32.2C169.1 27.8 165.5 24.2 161.1 24.2ZM139.6 54.2H65.8C61.4 54.2 57.8 57.8 57.8 62.2C57.8 66.6 61.4 70.2 65.8 70.2H139.6C144 70.2 147.6 66.6 147.6 62.2C147.6 57.8 144 54.2 139.6 54.2Z" fill="black"/>
</svg>
